<?xml version="1.0" encoding="utf-8"?>
<!-- Generator: Adobe Illustrator 23.1.1, SVG Export Plug-In . SVG Version: 6.00 Build 0)  -->
<svg version="1.1" id="Layer_1" xmlns="http://www.w3.org/2000/svg" xmlns:xlink="http://www.w3.org/1999/xlink" x="0px" y="0px"
	 viewBox="0 0 481.2 648" style="enable-background:new 0 0 481.2 648;" xml:space="preserve">
<style type="text/css">
	.st0{fill:#F5F5F5;}
	.st1{stroke:#808080;stroke-width:0.8;stroke-linejoin:round;}
	.st2{opacity:0.27;}
	.st3{clip-path:url(#SVGID_2_);fill:none;stroke:#1F77B4;stroke-linecap:square;stroke-linejoin:round;}
	.st4{clip-path:url(#SVGID_4_);fill:none;stroke:#FF7F0E;stroke-linecap:square;stroke-linejoin:round;}
	.st5{clip-path:url(#SVGID_6_);fill:none;stroke:#2CA02C;stroke-width:2.5;stroke-linecap:square;stroke-linejoin:round;}
	.st6{clip-path:url(#SVGID_8_);fill:none;stroke:#D62728;stroke-linecap:square;stroke-linejoin:round;}
	.st7{clip-path:url(#SVGID_10_);fill:none;stroke:#9467BD;stroke-width:2.5;stroke-linecap:square;stroke-linejoin:round;}
	.st8{clip-path:url(#SVGID_12_);fill:none;stroke:#8C564B;stroke-linecap:square;stroke-linejoin:round;}
	.st9{clip-path:url(#SVGID_14_);fill:none;stroke:#E377C2;stroke-linecap:square;stroke-linejoin:round;}
	.st10{fill:none;stroke:#808080;stroke-width:0.8;stroke-linecap:square;}
	.st11{fill:none;stroke:#808080;stroke-width:0.8;stroke-linecap:square;stroke-dasharray:5.0738,5.0738,5.0738,5.0738;}
	
		.st12{fill:none;stroke:#808080;stroke-width:0.8;stroke-linecap:square;stroke-dasharray:5.0738,5.0738,5.0738,5.0738,5.0738,5.0738;}
	.st13{fill:none;}
	.st14{font-family:'ArialMT';}
	.st15{font-size:11.1566px;}
	.st16{font-size:9px;}
	.st17{fill:#2CA02C;}
	.st18{font-size:14px;}
	.st19{fill:#9467BD;}
	.st20{enable-background:new    ;}
	.st21{fill:#808080;}
</style>
<path class="st0" d="M0,648h481.2V0H0V648z"/>
<g id="text_1">
	<g transform="translate(56.493182 581.598438)scale(0.1 -0.1)">
		<g>
			<path id="DejaVuSans-50" d="M19.2,8.3h34.4V0H7.3v8.3c3.7,3.9,8.8,9.1,15.3,15.6s10.5,10.7,12.2,12.6c3.2,3.5,5.4,6.5,6.6,9
				c1.3,2.5,1.9,4.9,1.9,7.2c0,3.9-1.4,7-4.1,9.5c-2.7,2.4-6.3,3.7-10.6,3.7c-3.1,0-6.4-0.5-9.8-1.6c-3.4-1.1-7.1-2.7-11-4.9v10
				c4,1.6,7.7,2.8,11.1,3.6c3.5,0.8,6.6,1.2,9.5,1.2c7.6,0,13.6-1.9,18.1-5.7c4.5-3.8,6.7-8.8,6.7-15.1c0-3-0.6-5.8-1.7-8.5
				c-1.1-2.7-3.2-5.8-6.1-9.5c-0.8-0.9-3.4-3.7-7.8-8.2C33.3,22.7,27.1,16.4,19.2,8.3z"/>
		</g>
		<g>
			<path id="DejaVuSans-48" d="M95.4,66.4c-5.1,0-8.9-2.5-11.5-7.5s-3.8-12.5-3.8-22.5s1.3-17.5,3.8-22.5c2.6-5,6.4-7.5,11.5-7.5
				s8.9,2.5,11.5,7.5s3.8,12.5,3.8,22.5s-1.3,17.5-3.8,22.5S100.5,66.4,95.4,66.4z M95.4,74.2c8.2,0,14.4-3.2,18.7-9.7
				s6.5-15.8,6.5-28.1s-2.2-21.6-6.5-28.1s-10.6-9.7-18.7-9.7c-8.2,0-14.4,3.2-18.7,9.7c-4.3,6.5-6.5,15.8-6.5,28.1
				s2.2,21.7,6.5,28.1C81,71,87.2,74.2,95.4,74.2z"/>
		</g>
		<g>
			<path id="DejaVuSans-49" d="M139.7,8.3h16.1v55.6l-17.5-3.5v9l17.4,3.5h9.9V8.3h16.1V0h-42V8.3z"/>
		</g>
		<g>
			<path id="DejaVuSans-54" d="M223.9,40.4c-4.4,0-7.9-1.5-10.5-4.5s-3.9-7.2-3.9-12.4s1.3-9.4,3.9-12.4c2.6-3,6.1-4.6,10.5-4.6
				s7.9,1.5,10.5,4.6s3.9,7.2,3.9,12.4c0,5.3-1.3,9.4-3.9,12.4S228.3,40.4,223.9,40.4z M243.5,71.3v-9c-2.5,1.2-5,2.1-7.5,2.7
				s-5,0.9-7.5,0.9c-6.5,0-11.5-2.2-14.9-6.6s-5.4-11-5.9-19.9c1.9,2.8,4.3,5,7.2,6.5s6.1,2.3,9.6,2.3c7.3,0,13.1-2.2,17.4-6.7
				c4.2-4.4,6.4-10.5,6.4-18.1c0-7.5-2.2-13.5-6.6-18c-4.4-4.5-10.3-6.8-17.7-6.8c-8.4,0-14.9,3.2-19.3,9.7
				c-4.5,6.5-6.7,15.8-6.7,28.1c0,11.5,2.7,20.7,8.2,27.6s12.8,10.3,22,10.3c2.5,0,5-0.2,7.5-0.7C238.1,73,240.7,72.3,243.5,71.3z"
				/>
		</g>
	</g>
</g>
<g id="text_2">
	<g transform="translate(157.947727 581.598438)scale(0.1 -0.1)">
		<g>
			<path d="M19.2,8.3h34.4V0H7.3v8.3c3.7,3.9,8.8,9.1,15.3,15.6s10.5,10.7,12.2,12.6c3.2,3.5,5.4,6.5,6.6,9c1.3,2.5,1.9,4.9,1.9,7.2
				c0,3.9-1.4,7-4.1,9.5c-2.7,2.4-6.3,3.7-10.6,3.7c-3.1,0-6.4-0.5-9.8-1.6c-3.4-1.1-7.1-2.7-11-4.9v10c4,1.6,7.7,2.8,11.1,3.6
				c3.5,0.8,6.6,1.2,9.5,1.2c7.6,0,13.6-1.9,18.1-5.7c4.5-3.8,6.7-8.8,6.7-15.1c0-3-0.6-5.8-1.7-8.5c-1.1-2.7-3.2-5.8-6.1-9.5
				c-0.8-0.9-3.4-3.7-7.8-8.2C33.3,22.7,27.1,16.4,19.2,8.3z"/>
		</g>
		<g>
			<path d="M95.4,66.4c-5.1,0-8.9-2.5-11.5-7.5s-3.8-12.5-3.8-22.5s1.3-17.5,3.8-22.5c2.6-5,6.4-7.5,11.5-7.5s8.9,2.5,11.5,7.5
				s3.8,12.5,3.8,22.5s-1.3,17.5-3.8,22.5S100.5,66.4,95.4,66.4z M95.4,74.2c8.2,0,14.4-3.2,18.7-9.7s6.5-15.8,6.5-28.1
				s-2.2-21.6-6.5-28.1s-10.6-9.7-18.7-9.7c-8.2,0-14.4,3.2-18.7,9.7c-4.3,6.5-6.5,15.8-6.5,28.1s2.2,21.7,6.5,28.1
				C81,71,87.2,74.2,95.4,74.2z"/>
		</g>
		<g>
			<path d="M139.7,8.3h16.1v55.6l-17.5-3.5v9l17.4,3.5h9.9V8.3h16.1V0h-42V8.3z"/>
		</g>
		<g>
			<path id="DejaVuSans-55" d="M199.1,72.9H246v-4.2L219.5,0h-10.3l24.9,64.6h-35C199.1,64.6,199.1,72.9,199.1,72.9z"/>
		</g>
	</g>
</g>
<g id="text_3">
	<g transform="translate(259.402273 581.598438)scale(0.1 -0.1)">
		<g>
			<path d="M19.2,8.3h34.4V0H7.3v8.3c3.7,3.9,8.8,9.1,15.3,15.6s10.5,10.7,12.2,12.6c3.2,3.5,5.4,6.5,6.6,9c1.3,2.5,1.9,4.9,1.9,7.2
				c0,3.9-1.4,7-4.1,9.5c-2.7,2.4-6.3,3.7-10.6,3.7c-3.1,0-6.4-0.5-9.8-1.6c-3.4-1.1-7.1-2.7-11-4.9v10c4,1.6,7.7,2.8,11.1,3.6
				c3.5,0.8,6.6,1.2,9.5,1.2c7.6,0,13.6-1.9,18.1-5.7c4.5-3.8,6.7-8.8,6.7-15.1c0-3-0.6-5.8-1.7-8.5c-1.1-2.7-3.2-5.8-6.1-9.5
				c-0.8-0.9-3.4-3.7-7.8-8.2C33.3,22.7,27.1,16.4,19.2,8.3z"/>
		</g>
		<g>
			<path d="M95.4,66.4c-5.1,0-8.9-2.5-11.5-7.5s-3.8-12.5-3.8-22.5s1.3-17.5,3.8-22.5c2.6-5,6.4-7.5,11.5-7.5s8.9,2.5,11.5,7.5
				s3.8,12.5,3.8,22.5s-1.3,17.5-3.8,22.5S100.5,66.4,95.4,66.4z M95.4,74.2c8.2,0,14.4-3.2,18.7-9.7s6.5-15.8,6.5-28.1
				s-2.2-21.6-6.5-28.1s-10.6-9.7-18.7-9.7c-8.2,0-14.4,3.2-18.7,9.7c-4.3,6.5-6.5,15.8-6.5,28.1s2.2,21.7,6.5,28.1
				C81,71,87.2,74.2,95.4,74.2z"/>
		</g>
		<g>
			<path d="M139.7,8.3h16.1v55.6l-17.5-3.5v9l17.4,3.5h9.9V8.3h16.1V0h-42V8.3z"/>
		</g>
		<g>
			<path id="DejaVuSans-56" d="M222.7,34.6c-4.7,0-8.4-1.3-11.1-3.8c-2.7-2.5-4-6-4-10.3c0-4.4,1.3-7.8,4-10.4
				c2.7-2.5,6.4-3.8,11.1-3.8s8.4,1.3,11.1,3.8c2.7,2.5,4.1,6,4.1,10.3c0,4.4-1.3,7.8-4,10.3C231.1,33.4,227.4,34.6,222.7,34.6z
				 M212.8,38.8c-4.2,1-7.5,3-9.9,5.9s-3.5,6.4-3.5,10.6c0,5.8,2.1,10.4,6.2,13.8c4.2,3.4,9.8,5.1,17.1,5.1s13-1.7,17.1-5.1
				s6.2-8,6.2-13.8c0-4.2-1.2-7.7-3.5-10.6c-2.4-2.9-5.6-4.9-9.8-5.9c4.8-1.1,8.4-3.3,11.1-6.5c2.7-3.2,4-7.2,4-11.8
				c0-7.1-2.2-12.5-6.5-16.3s-10.5-5.7-18.5-5.7s-14.2,1.9-18.5,5.7s-6.5,9.2-6.5,16.3c0,4.6,1.3,8.6,4,11.8
				C204.3,35.5,208,37.7,212.8,38.8z M209.2,54.4c0-3.8,1.2-6.7,3.5-8.8c2.4-2.1,5.7-3.2,9.9-3.2s7.6,1.1,9.9,3.2
				c2.4,2.1,3.6,5.1,3.6,8.8c0,3.8-1.2,6.7-3.6,8.8c-2.4,2.1-5.7,3.2-9.9,3.2c-4.3,0-7.6-1.1-9.9-3.2
				C210.4,61.1,209.2,58.2,209.2,54.4z"/>
		</g>
	</g>
</g>
<g id="text_4">
	<g transform="translate(360.856818 581.598438)scale(0.1 -0.1)">
		<g>
			<path d="M19.2,8.3h34.4V0H7.3v8.3c3.7,3.9,8.8,9.1,15.3,15.6s10.5,10.7,12.2,12.6c3.2,3.5,5.4,6.5,6.6,9c1.3,2.5,1.9,4.9,1.9,7.2
				c0,3.9-1.4,7-4.1,9.5c-2.7,2.4-6.3,3.7-10.6,3.7c-3.1,0-6.4-0.5-9.8-1.6c-3.4-1.1-7.1-2.7-11-4.9v10c4,1.6,7.7,2.8,11.1,3.6
				c3.5,0.8,6.6,1.2,9.5,1.2c7.6,0,13.6-1.9,18.1-5.7c4.5-3.8,6.7-8.8,6.7-15.1c0-3-0.6-5.8-1.7-8.5c-1.1-2.7-3.2-5.8-6.1-9.5
				c-0.8-0.9-3.4-3.7-7.8-8.2C33.3,22.7,27.1,16.4,19.2,8.3z"/>
		</g>
		<g>
			<path d="M95.4,66.4c-5.1,0-8.9-2.5-11.5-7.5s-3.8-12.5-3.8-22.5s1.3-17.5,3.8-22.5c2.6-5,6.4-7.5,11.5-7.5s8.9,2.5,11.5,7.5
				s3.8,12.5,3.8,22.5s-1.3,17.5-3.8,22.5S100.5,66.4,95.4,66.4z M95.4,74.2c8.2,0,14.4-3.2,18.7-9.7s6.5-15.8,6.5-28.1
				s-2.2-21.6-6.5-28.1s-10.6-9.7-18.7-9.7c-8.2,0-14.4,3.2-18.7,9.7c-4.3,6.5-6.5,15.8-6.5,28.1s2.2,21.7,6.5,28.1
				C81,71,87.2,74.2,95.4,74.2z"/>
		</g>
		<g>
			<path d="M139.7,8.3h16.1v55.6l-17.5-3.5v9l17.4,3.5h9.9V8.3h16.1V0h-42V8.3z"/>
		</g>
		<g>
			<path id="DejaVuSans-57" d="M201.9,1.5v9c2.5-1.2,5-2.1,7.5-2.7s5-0.9,7.5-0.9c6.5,0,11.5,2.2,14.9,6.6s5.4,11,5.9,20
				c-1.9-2.8-4.3-5-7.2-6.5s-6.1-2.2-9.6-2.2c-7.3,0-13.1,2.2-17.3,6.6s-6.4,10.5-6.4,18.1c0,7.5,2.2,13.5,6.6,18
				c4.4,4.5,10.3,6.8,17.7,6.8c8.4,0,14.9-3.2,19.3-9.7c4.4-6.5,6.7-15.8,6.7-28.1c0-11.5-2.7-20.7-8.2-27.5
				c-5.4-6.9-12.8-10.3-22-10.3c-2.5,0-5,0.2-7.5,0.7C207.2-0.2,204.6,0.5,201.9,1.5z M221.5,32.4c4.4,0,7.9,1.5,10.5,4.5
				s3.9,7.2,3.9,12.5c0,5.2-1.3,9.4-3.9,12.4c-2.6,3-6.1,4.6-10.5,4.6s-7.9-1.5-10.5-4.6c-2.6-3.1-3.9-7.2-3.9-12.4
				c0-5.3,1.3-9.4,3.9-12.5C213.5,33.9,217.1,32.4,221.5,32.4z"/>
		</g>
	</g>
</g>
<g id="line2d_5">
	<g>
		<g>
			<path id="m47e8053097" class="st1" d="M54,479.3h-3.5"/>
		</g>
	</g>
</g>
<g id="line2d_6">
	<g>
		<g>
			<path class="st1" d="M54,371.4h-3.5"/>
		</g>
	</g>
</g>
<g id="line2d_9" class="st2">
	<g>
		<g>
			<g>
				<defs>
					<rect id="SVGID_1_" x="54" y="77.8" width="334.8" height="489.2"/>
				</defs>
				<clipPath id="SVGID_2_">
					<use xlink:href="#SVGID_1_"  style="overflow:visible;"/>
				</clipPath>
				<path class="st3" d="M69.2,544.8L170.7,509l101.5-29l101.5-23.2"/>
			</g>
		</g>
	</g>
</g>
<g id="line2d_10" class="st2">
	<g>
		<g>
			<g>
				<defs>
					<rect id="SVGID_3_" x="54" y="77.8" width="334.8" height="489.2"/>
				</defs>
				<clipPath id="SVGID_4_">
					<use xlink:href="#SVGID_3_"  style="overflow:visible;"/>
				</clipPath>
				<path class="st4" d="M69.2,223.8l101.5-28.1l101.5-33.6l101.5,30.1"/>
			</g>
		</g>
	</g>
</g>
<g id="line2d_11">
	<g>
		<g>
			<g>
				<defs>
					<rect id="SVGID_5_" x="54" y="77.8" width="334.8" height="489.2"/>
				</defs>
				<clipPath id="SVGID_6_">
					<use xlink:href="#SVGID_5_"  style="overflow:visible;"/>
				</clipPath>
				<path class="st5" d="M69.2,540.7l101.5-17.8l101.5-43.6l101.5-21.8"/>
			</g>
		</g>
	</g>
</g>
<g class="st2">
	<g>
		<g>
			<defs>
				<rect id="SVGID_7_" x="54" y="77.8" width="334.8" height="489.2"/>
			</defs>
			<clipPath id="SVGID_8_">
				<use xlink:href="#SVGID_7_"  style="overflow:visible;"/>
			</clipPath>
			<path class="st6" d="M69.2,153l101.5-20.7l101.5-0.8L373.6,100"/>
		</g>
	</g>
</g>
<g>
	<g>
		<defs>
			<rect id="SVGID_9_" x="54" y="77.8" width="334.8" height="489.2"/>
		</defs>
		<clipPath id="SVGID_10_">
			<use xlink:href="#SVGID_9_"  style="overflow:visible;"/>
		</clipPath>
		<path class="st7" d="M69.2,316l101.5-58.8L272.1,201l101.5,11.8"/>
	</g>
</g>
<g class="st2">
	<g>
		<g>
			<defs>
				<rect id="SVGID_11_" x="54" y="77.8" width="334.8" height="489.2"/>
			</defs>
			<clipPath id="SVGID_12_">
				<use xlink:href="#SVGID_11_"  style="overflow:visible;"/>
			</clipPath>
			<path class="st8" d="M69.2,227.4l101.5-41.8l101.5-24.2l101.5,1"/>
		</g>
	</g>
</g>
<g class="st2">
	<g>
		<g>
			<defs>
				<rect id="SVGID_13_" x="54" y="77.8" width="334.8" height="489.2"/>
			</defs>
			<clipPath id="SVGID_14_">
				<use xlink:href="#SVGID_13_"  style="overflow:visible;"/>
			</clipPath>
			<path class="st9" d="M69.2,166.4l101.5-31l101.5-11.7l101.5-15.6"/>
		</g>
	</g>
</g>
<g id="line2d_16">
</g>
<g id="line2d_17">
</g>
<g id="line2d_18">
</g>
<g id="line2d_19">
</g>
<g id="line2d_20">
</g>
<g id="line2d_21">
</g>
<g id="line2d_22">
</g>
<g id="line2d_23">
</g>
<g id="patch_5">
	<g>
		<g>
			<line class="st10" x1="54" y1="567" x2="56.5" y2="567"/>
			<line class="st11" x1="61.6" y1="567" x2="79.3" y2="567"/>
			<line class="st12" x1="81.9" y1="567" x2="383.8" y2="567"/>
			<line class="st10" x1="386.3" y1="567" x2="388.8" y2="567"/>
		</g>
	</g>
</g>
<g id="line2d_24">
	<path class="st13" d="M271.5,276.3h20"/>
</g>
<g id="line2d_25">
</g>
<g id="line2d_27">
</g>
<g id="line2d_29">
</g>
<g id="line2d_31">
</g>
<g id="line2d_33">
</g>
<g id="line2d_35">
</g>
<g id="line2d_37">
</g>
<g id="line2d_39">
</g>
<g>
	<g>
		<path d="M134.3,39.9h-4v-2.2H141v2.2h-4.1v12h-2.6L134.3,39.9L134.3,39.9z"/>
		<path d="M152.3,46.7c0,3.8-2.6,5.4-5.3,5.4c-2.9,0-5.1-2-5.1-5.3c0-3.4,2.2-5.4,5.3-5.4C150.2,41.5,152.3,43.6,152.3,46.7z
			 M144.6,46.8c0,2,1,3.5,2.5,3.5s2.5-1.4,2.5-3.5c0-1.6-0.7-3.4-2.5-3.4C145.3,43.3,144.6,45.1,144.6,46.8z"/>
		<path d="M157.4,38.8v2.9h2.5v1.9h-2.5v4.5c0,1.3,0.3,1.9,1.3,1.9c0.4,0,0.8-0.1,1-0.1l0.1,2c-0.4,0.1-1.1,0.3-1.9,0.3
			c-0.9,0-1.7-0.3-2.2-0.8c-0.6-0.6-0.8-1.5-0.8-2.9v-4.8h-1.5v-1.9h1.5v-2.3L157.4,38.8z"/>
		<path d="M167.5,51.9l-0.2-1.1h-0.1c-0.6,0.8-1.7,1.4-3,1.4c-2.1,0-3.2-1.5-3.2-3c0-2.6,2.3-3.9,6.1-3.9v-0.2
			c0-0.7-0.3-1.8-2.1-1.8c-1,0-2.1,0.3-2.7,0.8l-0.5-1.7c0.8-0.5,2.1-0.9,3.7-0.9c3.3,0,4.2,2.1,4.2,4.3v3.7c0,0.9,0,1.8,0.2,2.5
			L167.5,51.9L167.5,51.9z M167.2,46.9c-1.8,0-3.6,0.4-3.6,1.9c0,1,0.7,1.5,1.5,1.5c1,0,1.8-0.7,2-1.4c0.1-0.2,0.1-0.4,0.1-0.6V46.9
			z"/>
		<path d="M172.4,37h2.6v14.9h-2.6V37z"/>
		<path d="M182.3,38c1.2-0.2,2.6-0.3,4.1-0.3c2.7,0,4.5,0.6,5.8,1.6c1.4,1.1,2.2,2.8,2.2,5.2c0,2.5-0.9,4.4-2.2,5.6
			c-1.4,1.3-3.7,1.9-6.4,1.9c-1.5,0-2.6-0.1-3.5-0.2L182.3,38L182.3,38z M184.9,49.9c0.4,0.1,0.9,0.1,1.4,0.1c3.4,0,5.4-1.8,5.4-5.4
			c0-3.1-1.8-4.9-5-4.9c-0.8,0-1.4,0.1-1.8,0.2L184.9,49.9L184.9,49.9z"/>
		<path d="M199.3,38.8c0,0.8-0.6,1.4-1.5,1.4s-1.4-0.6-1.4-1.4c0-0.8,0.6-1.4,1.4-1.4C198.7,37.4,199.3,38,199.3,38.8z M196.5,51.9
			V41.7h2.6v10.2H196.5z"/>
		<path d="M203.5,41.7l1.7,5.2c0.3,0.9,0.5,1.7,0.7,2.6h0.1c0.2-0.8,0.4-1.6,0.7-2.6l1.6-5.2h2.7l-3.9,10.2h-2.5l-3.8-10.2H203.5z"
			/>
		<path d="M214.4,47.5c0.1,1.9,1.5,2.7,3.2,2.7c1.2,0,2-0.2,2.8-0.5l0.4,1.8c-0.9,0.4-2.1,0.6-3.6,0.6c-3.3,0-5.3-2.1-5.3-5.2
			c0-2.8,1.7-5.5,5-5.5s4.4,2.7,4.4,5c0,0.5,0,0.9-0.1,1.1C221.2,47.5,214.4,47.5,214.4,47.5z M218.9,45.7c0-0.9-0.4-2.5-2.1-2.5
			c-1.6,0-2.3,1.4-2.4,2.5H218.9z"/>
		<path d="M223.4,45c0-1.4,0-2.4-0.1-3.3h2.2l0.1,1.9h0.1c0.5-1.4,1.7-2.2,2.8-2.2c0.3,0,0.4,0,0.6,0.1v2.4c-0.2,0-0.4-0.1-0.8-0.1
			c-1.2,0-2.1,0.8-2.3,2c0,0.2-0.1,0.5-0.1,0.8v5.3h-2.6V45H223.4z"/>
		<path d="M230.8,49.5c0.6,0.4,1.7,0.7,2.6,0.7c1.1,0,1.6-0.5,1.6-1.1c0-0.7-0.4-1-1.7-1.5c-2-0.7-2.8-1.8-2.8-3
			c0-1.8,1.5-3.2,3.9-3.2c1.1,0,2.1,0.3,2.7,0.6l-0.5,1.8c-0.4-0.2-1.3-0.6-2.2-0.6s-1.4,0.5-1.4,1.1s0.5,1,1.8,1.4
			c1.9,0.7,2.7,1.6,2.7,3.1c0,1.9-1.5,3.2-4.2,3.2c-1.2,0-2.4-0.3-3.1-0.7L230.8,49.5z"/>
		<path d="M242.4,38.8c0,0.8-0.6,1.4-1.5,1.4s-1.4-0.6-1.4-1.4c0-0.8,0.6-1.4,1.4-1.4C241.8,37.4,242.4,38,242.4,38.8z M239.6,51.9
			V41.7h2.6v10.2H239.6z"/>
		<path d="M254.7,46.7c0,3.8-2.6,5.4-5.3,5.4c-2.9,0-5.1-2-5.1-5.3c0-3.4,2.2-5.4,5.3-5.4C252.7,41.5,254.7,43.6,254.7,46.7z
			 M247,46.8c0,2,1,3.5,2.5,3.5s2.5-1.4,2.5-3.5c0-1.6-0.7-3.4-2.5-3.4C247.8,43.3,247,45.1,247,46.8z"/>
		<path d="M256.9,44.7c0-1.2,0-2.2-0.1-3h2.3l0.1,1.5h0.1c0.5-0.8,1.6-1.8,3.3-1.8c1.8,0,3.6,1.1,3.6,4.4v6.1h-2.6v-5.8
			c0-1.5-0.5-2.6-2-2.6c-1,0-1.7,0.7-2,1.5c-0.1,0.2-0.1,0.5-0.1,0.8v6h-2.6L256.9,44.7L256.9,44.7z"/>
		<path d="M273.3,38c1-0.2,2.4-0.3,3.9-0.3c2,0,3.4,0.3,4.4,1.1c0.8,0.6,1.2,1.6,1.2,2.8c0,1.8-1.2,3.1-2.6,3.5v0.1
			c1,0.4,1.6,1.4,2,2.7c0.5,1.8,0.8,3.4,1.1,3.9h-2.7c-0.2-0.4-0.6-1.6-1-3.3c-0.4-1.8-1.1-2.4-2.5-2.5h-1.3v5.8h-2.6V38H273.3z
			 M275.9,44.2h1.5c1.8,0,2.8-0.9,2.8-2.3c0-1.5-1.1-2.3-2.8-2.3c-0.8,0-1.3,0.1-1.6,0.1v4.5H275.9z"/>
		<path d="M290.9,51.9l-0.2-1.1h-0.1c-0.6,0.8-1.7,1.4-3,1.4c-2.1,0-3.2-1.5-3.2-3c0-2.6,2.3-3.9,6.1-3.9v-0.2
			c0-0.7-0.3-1.8-2.1-1.8c-1,0-2.1,0.3-2.7,0.8l-0.5-1.7c0.8-0.5,2.1-0.9,3.7-0.9c3.3,0,4.2,2.1,4.2,4.3v3.7c0,0.9,0,1.8,0.2,2.5
			L290.9,51.9L290.9,51.9z M290.6,46.9c-1.8,0-3.6,0.4-3.6,1.9c0,1,0.7,1.5,1.5,1.5c1,0,1.8-0.7,2-1.4c0.1-0.2,0.1-0.4,0.1-0.6V46.9
			z"/>
		<path d="M298.8,38.8v2.9h2.5v1.9h-2.5v4.5c0,1.3,0.3,1.9,1.3,1.9c0.4,0,0.8-0.1,1-0.1l0.1,2c-0.4,0.1-1.1,0.3-1.9,0.3
			c-1,0-1.7-0.3-2.2-0.8c-0.6-0.6-0.8-1.5-0.8-2.9v-4.8h-1.5v-1.9h1.5v-2.3L298.8,38.8z"/>
		<path d="M305,47.5c0.1,1.9,1.5,2.7,3.2,2.7c1.2,0,2-0.2,2.8-0.5l0.4,1.8c-0.9,0.4-2.1,0.6-3.6,0.6c-3.3,0-5.3-2.1-5.3-5.2
			c0-2.8,1.7-5.5,5-5.5s4.4,2.7,4.4,5c0,0.5,0,0.9-0.1,1.1C311.8,47.5,305,47.5,305,47.5z M309.5,45.7c0-0.9-0.4-2.5-2.1-2.5
			c-1.6,0-2.3,1.4-2.4,2.5H309.5z"/>
		<path d="M90.8,62.6c-1.3,2-2.4,4.8-2.4,8.5s1,6.5,2.4,8.5H89c-1.2-1.7-2.6-4.4-2.6-8.5s1.3-6.8,2.6-8.5H90.8z"/>
		<path d="M95.6,65.1h-4V63h10.7v2.2h-4.1v12h-2.6V65.1z"/>
		<path d="M113.6,71.9c0,3.8-2.6,5.4-5.3,5.4c-2.9,0-5.1-2-5.1-5.3c0-3.4,2.2-5.4,5.3-5.4C111.5,66.7,113.6,68.8,113.6,71.9z
			 M105.9,72c0,2,1,3.5,2.5,3.5s2.5-1.4,2.5-3.5c0-1.6-0.7-3.4-2.5-3.4C106.6,68.5,105.9,70.3,105.9,72z"/>
		<path d="M118.7,64v2.9h2.5v1.9h-2.5v4.5c0,1.3,0.3,1.9,1.3,1.9c0.4,0,0.8-0.1,1-0.1l0.1,2c-0.4,0.1-1.1,0.3-1.9,0.3
			c-0.9,0-1.7-0.3-2.2-0.8c-0.6-0.6-0.8-1.5-0.8-2.9v-4.8h-1.5V67h1.5v-2.3L118.7,64z"/>
		<path d="M128.8,77.1l-0.2-1.1h-0.1c-0.6,0.8-1.7,1.4-3,1.4c-2.1,0-3.2-1.5-3.2-3c0-2.6,2.3-3.9,6.1-3.9v-0.2
			c0-0.7-0.3-1.8-2.1-1.8c-1,0-2.1,0.3-2.7,0.8l-0.5-1.7c0.8-0.5,2.1-0.9,3.7-0.9c3.3,0,4.2,2.1,4.2,4.3v3.7c0,0.9,0,1.8,0.2,2.5
			h-2.4L128.8,77.1L128.8,77.1z M128.5,72.1c-1.8,0-3.6,0.4-3.6,1.9c0,1,0.7,1.5,1.5,1.5c1,0,1.8-0.7,2-1.4c0.1-0.2,0.1-0.4,0.1-0.6
			V72.1z"/>
		<path d="M133.7,62.2h2.6v14.9h-2.6V62.2z"/>
		<path d="M143.6,63.2c1-0.2,2.4-0.3,3.9-0.3c2,0,3.4,0.3,4.4,1.1c0.8,0.6,1.2,1.6,1.2,2.8c0,1.8-1.2,3.1-2.6,3.5v0.1
			c1,0.4,1.6,1.4,2,2.7c0.4,1.8,0.8,3.4,1.1,3.9h-2.7c-0.2-0.4-0.6-1.6-1-3.3c-0.4-1.8-1.1-2.4-2.5-2.5h-1.3V77h-2.6V63.2H143.6z
			 M146.1,69.4h1.5c1.8,0,2.8-0.9,2.8-2.3c0-1.5-1.1-2.3-2.8-2.3c-0.8,0-1.3,0.1-1.6,0.1v4.5C146,69.4,146.1,69.4,146.1,69.4z"/>
		<path d="M157.3,72.7c0.1,1.9,1.5,2.7,3.2,2.7c1.2,0,2-0.2,2.8-0.5l0.4,1.8c-0.9,0.4-2.1,0.6-3.6,0.6c-3.3,0-5.3-2.1-5.3-5.2
			c0-2.8,1.7-5.5,5-5.5s4.4,2.7,4.4,5c0,0.5,0,0.9-0.1,1.1H157.3z M161.8,70.9c0-0.9-0.4-2.5-2.1-2.5c-1.6,0-2.3,1.4-2.4,2.5H161.8z
			"/>
		<path d="M173.8,76.8c-0.5,0.3-1.6,0.5-2.9,0.5c-3.2,0-5.3-2.1-5.3-5.2s2.1-5.4,5.7-5.4c1,0,1.9,0.2,2.5,0.5l-0.5,1.9
			c-0.4-0.2-1-0.4-2-0.4c-2,0-3.1,1.4-3.1,3.3c0,2.1,1.4,3.3,3.1,3.3c0.9,0,1.5-0.2,2-0.4L173.8,76.8z"/>
		<path d="M177.3,66.9l1.8,5.5c0.2,0.6,0.4,1.4,0.6,2h0.1c0.2-0.6,0.4-1.3,0.5-2l1.6-5.5h2.8l-2.6,7c-1.4,3.8-2.4,5.5-3.6,6.6
			c-1,0.9-2.1,1.2-2.7,1.3l-0.6-2.2c0.4-0.1,1-0.3,1.5-0.7c0.5-0.3,1.1-0.9,1.4-1.6c0.1-0.2,0.2-0.3,0.2-0.5c0-0.1,0-0.3-0.1-0.5
			l-3.8-9.4C174.4,66.9,177.3,66.9,177.3,66.9z"/>
		<path d="M193.7,76.8c-0.5,0.3-1.6,0.5-2.9,0.5c-3.2,0-5.3-2.1-5.3-5.2s2.1-5.4,5.7-5.4c1,0,1.9,0.2,2.5,0.5l-0.5,1.9
			c-0.4-0.2-1-0.4-2-0.4c-2,0-3.1,1.4-3.1,3.3c0,2.1,1.4,3.3,3.1,3.3c0.9,0,1.5-0.2,2-0.4L193.7,76.8z"/>
		<path d="M195.6,62.2h2.6v14.9h-2.6V62.2z"/>
		<path d="M203.8,64c0,0.8-0.6,1.4-1.5,1.4s-1.4-0.6-1.4-1.4c0-0.8,0.6-1.4,1.4-1.4C203.2,62.6,203.8,63.2,203.8,64z M201,77.1V66.9
			h2.6v10.2H201z"/>
		<path d="M206.4,69.9c0-1.2,0-2.2-0.1-3h2.3l0.1,1.5h0.1c0.5-0.8,1.6-1.8,3.3-1.8c1.8,0,3.6,1.1,3.6,4.4v6.1h-2.6v-5.8
			c0-1.5-0.5-2.6-2-2.6c-1,0-1.7,0.7-2,1.5c-0.1,0.2-0.1,0.5-0.1,0.8v6h-2.6V69.9z"/>
		<path d="M227.8,66.9c0,0.7-0.1,1.5-0.1,2.9v5.8c0,2.1-0.4,3.7-1.5,4.6s-2.5,1.2-4,1.2c-1.3,0-2.7-0.3-3.6-0.8l0.6-2
			c0.7,0.4,1.8,0.8,3,0.8c1.7,0,2.9-0.9,2.9-3.1v-0.9l0,0c-0.6,0.9-1.6,1.5-3,1.5c-2.5,0-4.3-2.1-4.3-5c0-3.4,2.2-5.4,4.6-5.4
			c1.6,0,2.5,0.7,3,1.6l0,0l0.1-1.4h2.3V66.9z M225.1,71c0-0.2,0-0.5-0.1-0.7c-0.3-0.9-1-1.7-2.1-1.7c-1.4,0-2.5,1.3-2.5,3.3
			c0,1.7,0.9,3.1,2.5,3.1c1,0,1.8-0.6,2.1-1.6c0.1-0.3,0.1-0.6,0.1-0.9V71z"/>
		<path d="M233.6,77.9l5.1-15.2h1.8l-5.1,15.2H233.6z"/>
		<path d="M249,65.1h-4V63h10.7v2.2h-4.1v12H249V65.1z"/>
		<path d="M267,71.9c0,3.8-2.6,5.4-5.3,5.4c-2.9,0-5.1-2-5.1-5.3c0-3.4,2.2-5.4,5.3-5.4C264.9,66.7,267,68.8,267,71.9z M259.2,72
			c0,2,1,3.5,2.5,3.5s2.5-1.4,2.5-3.5c0-1.6-0.7-3.4-2.5-3.4C260,68.5,259.2,70.3,259.2,72z"/>
		<path d="M272,64v2.9h2.5v1.9H272v4.5c0,1.3,0.3,1.9,1.3,1.9c0.4,0,0.8-0.1,1-0.1l0.1,2c-0.4,0.1-1.1,0.3-1.9,0.3
			c-1,0-1.7-0.3-2.2-0.8c-0.6-0.6-0.8-1.5-0.8-2.9v-4.8H268V67h1.5v-2.3L272,64z"/>
		<path d="M282.2,77.1L282,76l0,0c-0.6,0.8-1.7,1.4-3,1.4c-2.1,0-3.2-1.5-3.2-3c0-2.6,2.3-3.9,6.1-3.9v-0.2c0-0.7-0.3-1.8-2.1-1.8
			c-1,0-2.1,0.3-2.7,0.8l-0.5-1.7c0.8-0.5,2.1-0.9,3.7-0.9c3.3,0,4.2,2.1,4.2,4.3v3.7c0,0.9,0,1.8,0.2,2.5h-2.5V77.1z M281.9,72.1
			c-1.8,0-3.6,0.4-3.6,1.9c0,1,0.7,1.5,1.5,1.5c1,0,1.8-0.7,2-1.4c0.1-0.2,0.1-0.4,0.1-0.6V72.1z"/>
		<path d="M287.1,62.2h2.6v14.9h-2.6V62.2z"/>
		<path d="M299.2,77.1L295.8,63h2.8l1.3,6.4c0.4,1.7,0.7,3.5,0.9,4.9l0,0c0.2-1.5,0.6-3.2,1-5l1.5-6.4h2.7l1.4,6.5
			c0.3,1.7,0.6,3.3,0.9,4.8l0,0c0.2-1.6,0.6-3.2,1-4.9l1.5-6.4h2.6l-3.8,14.2h-2.8l-1.5-6.7c-0.4-1.6-0.6-3-0.8-4.5l0,0
			c-0.2,1.5-0.5,2.9-0.9,4.5l-1.6,6.7H299.2z"/>
		<path d="M320.9,77.1l-0.2-1.1h-0.1c-0.6,0.8-1.7,1.4-3,1.4c-2.1,0-3.2-1.5-3.2-3c0-2.6,2.3-3.9,6.1-3.9v-0.2
			c0-0.7-0.3-1.8-2.1-1.8c-1,0-2.1,0.3-2.7,0.8l-0.5-1.7c0.8-0.5,2.1-0.9,3.7-0.9c3.3,0,4.2,2.1,4.2,4.3v3.7c0,0.9,0,1.8,0.2,2.5
			h-2.4V77.1z M320.5,72.1c-1.8,0-3.6,0.4-3.6,1.9c0,1,0.7,1.5,1.5,1.5c1,0,1.8-0.7,2-1.4c0.1-0.2,0.1-0.4,0.1-0.6V72.1z"/>
		<path d="M325.7,74.7c0.6,0.4,1.7,0.7,2.6,0.7c1.1,0,1.6-0.5,1.6-1.1c0-0.7-0.4-1-1.7-1.5c-2-0.7-2.8-1.8-2.8-3
			c0-1.8,1.5-3.2,3.9-3.2c1.1,0,2.1,0.3,2.7,0.6l-0.5,1.8c-0.4-0.2-1.3-0.6-2.2-0.6c-0.9,0-1.4,0.5-1.4,1.1s0.5,1,1.8,1.4
			c1.9,0.7,2.7,1.6,2.7,3.1c0,1.9-1.5,3.2-4.2,3.2c-1.2,0-2.4-0.3-3.1-0.7L325.7,74.7z"/>
		<path d="M337.5,64v2.9h2.5v1.9h-2.5v4.5c0,1.3,0.3,1.9,1.3,1.9c0.4,0,0.8-0.1,1-0.1l0.1,2c-0.4,0.1-1.1,0.3-1.9,0.3
			c-1,0-1.7-0.3-2.2-0.8c-0.6-0.6-0.8-1.5-0.8-2.9v-4.8h-1.5V67h1.5v-2.3L337.5,64z"/>
		<path d="M343.7,72.7c0.1,1.9,1.5,2.7,3.2,2.7c1.2,0,2-0.2,2.8-0.5l0.4,1.8c-0.9,0.4-2.1,0.6-3.6,0.6c-3.3,0-5.3-2.1-5.3-5.2
			c0-2.8,1.7-5.5,5-5.5s4.4,2.7,4.4,5c0,0.5,0,0.9-0.1,1.1H343.7z M348.2,70.9c0-0.9-0.4-2.5-2.1-2.5c-1.6,0-2.3,1.4-2.4,2.5H348.2z
			"/>
		<path d="M351.9,79.6c1.3-2,2.4-4.8,2.4-8.5s-1-6.5-2.4-8.5h1.9c1.2,1.7,2.6,4.4,2.6,8.5s-1.3,6.8-2.6,8.5H351.9z"/>
	</g>
</g>
<g>
	<g>
		<line class="st10" x1="53.6" y1="371.5" x2="56.1" y2="371.5"/>
		<line class="st11" x1="61.2" y1="371.5" x2="78.9" y2="371.5"/>
		<line class="st12" x1="81.5" y1="371.5" x2="383.4" y2="371.5"/>
		<line class="st10" x1="385.9" y1="371.5" x2="388.4" y2="371.5"/>
	</g>
</g>
<g>
	<g>
		<line class="st10" x1="53.6" y1="263.5" x2="56.1" y2="263.5"/>
		<line class="st11" x1="61.2" y1="263.5" x2="78.9" y2="263.5"/>
		<line class="st12" x1="81.5" y1="263.5" x2="383.4" y2="263.5"/>
		<line class="st10" x1="385.9" y1="263.5" x2="388.4" y2="263.5"/>
	</g>
</g>
<g>
	<g>
		<line class="st10" x1="50.6" y1="155.5" x2="53.1" y2="155.5"/>
		<line class="st11" x1="58.2" y1="155.5" x2="75.9" y2="155.5"/>
		<line class="st12" x1="78.5" y1="155.5" x2="380.4" y2="155.5"/>
		<line class="st10" x1="382.9" y1="155.5" x2="385.4" y2="155.5"/>
	</g>
</g>
<g>
	<g>
		<line class="st10" x1="53.6" y1="479.5" x2="56.1" y2="479.5"/>
		<line class="st11" x1="61.2" y1="479.5" x2="78.9" y2="479.5"/>
		<line class="st12" x1="81.5" y1="479.5" x2="383.4" y2="479.5"/>
		<line class="st10" x1="385.9" y1="479.5" x2="388.4" y2="479.5"/>
	</g>
</g>
<g id="line2d_7">
	<g>
		<g>
			<path class="st1" d="M54,263.5h-3.5"/>
		</g>
	</g>
</g>
<text transform="matrix(0.986 0 0 1 23.709 158.3711)" class="st14 st15">20%</text>
<rect x="25" y="256.3" class="st13" width="18.7" height="15.2"/>
<text transform="matrix(0.986 0 0 1 32.4209 264.248)" class="st14 st15">18</text>
<rect x="21.2" y="365.7" class="st13" width="22.5" height="12.2"/>
<text transform="matrix(0.986 0 0 1 32.4209 373.5928)" class="st14 st15">16</text>
<rect x="28" y="474.6" class="st13" width="15.7" height="9.9"/>
<text transform="matrix(0.986 0 0 1 32.4209 482.5586)" class="st14 st15">14</text>
<rect x="35.8" y="605.1" class="st13" width="358.7" height="25.1"/>
<text transform="matrix(1 0 0 1 35.8442 611.5186)" class="st14 st16">Data: NYC Open Data: Recycling Diversion and Capture Rates</text>
<text transform="matrix(1 0 0 1 35.8442 622.3186)" class="st14 st16">https://data.cityofnewyork.us/Environment/Recycling-Diversion-and-Capture-Rates/gaq9-z3hz</text>
<rect x="380.4" y="450.2" class="st13" width="41" height="15.9"/>
<text transform="matrix(1 0 0 1 380.4186 460.1045)" class="st17 st14 st18">Bronx</text>
<rect x="380.4" y="207.9" class="st13" width="65.3" height="15.1"/>
<text transform="matrix(1 0 0 1 380.4184 217.8564)" class="st19 st14 st18">Queens East </text>
<rect x="380.4" y="90.5" class="st13" width="82.3" height="11.7"/>
<g>
	<g class="st20">
		<path class="st21" d="M381.3,91c0.5-0.1,1.2-0.2,1.9-0.2c1,0,1.7,0.2,2.2,0.6c0.4,0.3,0.7,0.8,0.7,1.4c0,0.8-0.5,1.5-1.4,1.8v0
			c0.8,0.2,1.7,0.8,1.7,2c0,0.7-0.3,1.2-0.7,1.6c-0.6,0.5-1.5,0.8-2.8,0.8c-0.7,0-1.3-0.1-1.6-0.1V91z M382.4,94.3h1
			c1.1,0,1.7-0.6,1.7-1.4c0-0.9-0.7-1.3-1.8-1.3c-0.5,0-0.8,0-0.9,0.1V94.3z M382.4,98.2c0.2,0,0.5,0.1,0.9,0.1
			c1.1,0,2.1-0.4,2.1-1.6c0-1.1-1-1.6-2.1-1.6h-0.9V98.2z"/>
		<path class="st21" d="M387.8,95c0-0.7,0-1.3,0-1.8h0.9l0,1.1h0c0.3-0.8,0.9-1.3,1.6-1.3c0.1,0,0.2,0,0.3,0v1c-0.1,0-0.2,0-0.4,0
			c-0.7,0-1.3,0.6-1.4,1.3c0,0.1,0,0.3,0,0.5V99h-1V95z"/>
		<path class="st21" d="M397,96c0,2.1-1.5,3.1-2.9,3.1c-1.6,0-2.8-1.1-2.8-3c0-1.9,1.3-3.1,2.9-3.1C395.8,93.1,397,94.3,397,96z
			 M392.4,96.1c0,1.3,0.7,2.2,1.8,2.2c1,0,1.8-0.9,1.8-2.3c0-1-0.5-2.2-1.7-2.2C392.9,93.9,392.4,95,392.4,96.1z"/>
		<path class="st21" d="M403.6,96c0,2.1-1.5,3.1-2.9,3.1c-1.6,0-2.8-1.1-2.8-3c0-1.9,1.3-3.1,2.9-3.1
			C402.4,93.1,403.6,94.3,403.6,96z M399,96.1c0,1.3,0.7,2.2,1.8,2.2c1,0,1.8-0.9,1.8-2.3c0-1-0.5-2.2-1.7-2.2
			C399.5,93.9,399,95,399,96.1z"/>
		<path class="st21" d="M405.9,95.9L405.9,95.9c0.2-0.2,0.4-0.5,0.5-0.7l1.7-2h1.3l-2.2,2.4l2.6,3.4h-1.3l-2-2.8l-0.5,0.6V99h-1
			v-8.5h1V95.9z"/>
		<path class="st21" d="M410.5,90.5h1V99h-1V90.5z"/>
		<path class="st21" d="M413.7,93.2l1.3,3.4c0.1,0.4,0.3,0.8,0.4,1.2h0c0.1-0.3,0.2-0.8,0.4-1.2l1.1-3.4h1.1l-1.6,4.1
			c-0.8,2-1.3,3-2,3.6c-0.5,0.5-1,0.6-1.3,0.7l-0.3-0.9c0.3-0.1,0.6-0.2,0.9-0.5c0.3-0.2,0.6-0.6,0.9-1.2c0.1-0.1,0.1-0.2,0.1-0.3
			c0-0.1,0-0.1-0.1-0.3l-2.1-5.3H413.7z"/>
		<path class="st21" d="M419,94.8c0-0.6,0-1.1,0-1.6h0.9l0.1,1h0c0.3-0.5,1-1.1,1.9-1.1c0.8,0,2,0.5,2,2.5V99h-1v-3.3
			c0-0.9-0.4-1.7-1.3-1.7c-0.7,0-1.2,0.5-1.4,1.1c0,0.1-0.1,0.3-0.1,0.5V99h-1V94.8z"/>
		<path class="st21" d="M428.1,97.9c0.3,0.2,0.9,0.4,1.4,0.4c0.8,0,1.1-0.4,1.1-0.9c0-0.5-0.3-0.8-1.1-1.1c-1-0.4-1.5-0.9-1.5-1.6
			c0-0.9,0.8-1.7,2-1.7c0.6,0,1.1,0.2,1.4,0.4l-0.3,0.8c-0.2-0.1-0.6-0.3-1.2-0.3c-0.6,0-1,0.4-1,0.8c0,0.5,0.3,0.7,1.1,1
			c1,0.4,1.5,0.9,1.5,1.7c0,1-0.8,1.7-2.2,1.7c-0.6,0-1.2-0.2-1.6-0.4L428.1,97.9z"/>
		<path class="st21" d="M438.2,96c0,2.1-1.5,3.1-2.9,3.1c-1.6,0-2.8-1.1-2.8-3c0-1.9,1.3-3.1,2.9-3.1
			C437.1,93.1,438.2,94.3,438.2,96z M433.6,96.1c0,1.3,0.7,2.2,1.8,2.2c1,0,1.8-0.9,1.8-2.3c0-1-0.5-2.2-1.7-2.2
			C434.2,93.9,433.6,95,433.6,96.1z"/>
		<path class="st21" d="M444.4,97.4c0,0.6,0,1.1,0,1.6h-0.9l-0.1-0.9h0c-0.3,0.5-0.9,1.1-1.9,1.1c-0.9,0-2-0.5-2-2.5v-3.4h1v3.2
			c0,1.1,0.3,1.9,1.3,1.9c0.7,0,1.2-0.5,1.4-1c0.1-0.2,0.1-0.3,0.1-0.5v-3.6h1V97.4z"/>
		<path class="st21" d="M447.4,91.5v1.7h1.5V94h-1.5v3.1c0,0.7,0.2,1.1,0.8,1.1c0.3,0,0.5,0,0.6-0.1l0,0.8c-0.2,0.1-0.5,0.1-0.9,0.1
			c-0.5,0-0.9-0.2-1.1-0.4c-0.3-0.3-0.4-0.8-0.4-1.5V94h-0.9v-0.8h0.9v-1.4L447.4,91.5z"/>
		<path class="st21" d="M450.1,90.5h1v3.6h0c0.2-0.3,0.4-0.6,0.8-0.7c0.3-0.2,0.7-0.3,1.1-0.3c0.8,0,2,0.5,2,2.5V99h-1v-3.3
			c0-0.9-0.4-1.7-1.3-1.7c-0.7,0-1.2,0.5-1.4,1.1c-0.1,0.1-0.1,0.3-0.1,0.5V99h-1V90.5z"/>
	</g>
</g>
<rect x="380.4" y="104.7" class="st13" width="84.9" height="12.1"/>
<g>
	<g class="st20">
		<path class="st21" d="M381.1,111.9c0.5,0.3,1.1,0.5,1.9,0.5c1.1,0,1.7-0.6,1.7-1.4c0-0.7-0.4-1.2-1.5-1.6
			c-1.3-0.5-2.1-1.2-2.1-2.3c0-1.3,1-2.2,2.6-2.2c0.8,0,1.4,0.2,1.8,0.4l-0.3,0.9c-0.3-0.2-0.8-0.4-1.5-0.4c-1.1,0-1.5,0.7-1.5,1.2
			c0,0.8,0.5,1.1,1.6,1.6c1.4,0.5,2.1,1.2,2.1,2.4c0,1.2-0.9,2.3-2.8,2.3c-0.8,0-1.6-0.2-2.1-0.5L381.1,111.9z"/>
		<path class="st21" d="M388.4,105.7v1.7h1.5v0.8h-1.5v3.1c0,0.7,0.2,1.1,0.8,1.1c0.3,0,0.5,0,0.6-0.1l0,0.8
			c-0.2,0.1-0.5,0.1-0.9,0.1c-0.5,0-0.9-0.2-1.1-0.4c-0.3-0.3-0.4-0.8-0.4-1.5v-3.2h-0.9v-0.8h0.9V106L388.4,105.7z"/>
		<path class="st21" d="M394.4,113.2l-0.1-0.7h0c-0.3,0.5-0.9,0.9-1.8,0.9c-1.2,0-1.8-0.8-1.8-1.7c0-1.4,1.2-2.2,3.5-2.2v-0.1
			c0-0.5-0.1-1.3-1.3-1.3c-0.5,0-1.1,0.2-1.5,0.4l-0.2-0.7c0.5-0.3,1.2-0.5,1.9-0.5c1.8,0,2.2,1.2,2.2,2.4v2.2c0,0.5,0,1,0.1,1.4
			H394.4z M394.2,110.2c-1.1,0-2.4,0.2-2.4,1.3c0,0.7,0.5,1,1,1c0.8,0,1.2-0.5,1.4-1c0-0.1,0.1-0.2,0.1-0.3V110.2z"/>
		<path class="st21" d="M398.2,105.7v1.7h1.5v0.8h-1.5v3.1c0,0.7,0.2,1.1,0.8,1.1c0.3,0,0.5,0,0.6-0.1l0,0.8
			c-0.2,0.1-0.5,0.1-0.9,0.1c-0.5,0-0.9-0.2-1.1-0.4c-0.3-0.3-0.4-0.8-0.4-1.5v-3.2h-0.9v-0.8h0.9V106L398.2,105.7z"/>
		<path class="st21" d="M401.5,110.5c0,1.4,0.9,2,2,2c0.8,0,1.2-0.1,1.6-0.3l0.2,0.7c-0.4,0.2-1,0.4-1.9,0.4c-1.8,0-2.9-1.2-2.9-2.9
			c0-1.8,1-3.1,2.7-3.1c1.9,0,2.4,1.7,2.4,2.7c0,0.2,0,0.4,0,0.5H401.5z M404.6,109.7c0-0.7-0.3-1.7-1.5-1.7c-1.1,0-1.5,1-1.6,1.7
			H404.6z"/>
		<path class="st21" d="M406.9,109c0-0.6,0-1.1,0-1.6h0.9l0.1,1h0c0.3-0.5,1-1.1,1.9-1.1c0.8,0,2,0.5,2,2.5v3.5h-1v-3.3
			c0-0.9-0.4-1.7-1.3-1.7c-0.7,0-1.2,0.5-1.4,1.1c0,0.1-0.1,0.3-0.1,0.5v3.5h-1V109z"/>
		<path class="st21" d="M417.2,105.1v8.1h-1v-8.1H417.2z"/>
		<path class="st21" d="M418.8,112.1c0.3,0.2,0.9,0.4,1.4,0.4c0.8,0,1.1-0.4,1.1-0.9c0-0.5-0.3-0.8-1.1-1.1c-1-0.4-1.5-0.9-1.5-1.6
			c0-0.9,0.8-1.7,2-1.7c0.6,0,1.1,0.2,1.4,0.4l-0.3,0.8c-0.2-0.1-0.6-0.3-1.2-0.3c-0.6,0-1,0.4-1,0.8c0,0.5,0.3,0.7,1.1,1
			c1,0.4,1.5,0.9,1.5,1.7c0,1-0.8,1.7-2.2,1.7c-0.6,0-1.2-0.2-1.6-0.4L418.8,112.1z"/>
		<path class="st21" d="M423.7,104.7h1v8.5h-1V104.7z"/>
		<path class="st21" d="M429.8,113.2l-0.1-0.7h0c-0.3,0.5-0.9,0.9-1.8,0.9c-1.2,0-1.8-0.8-1.8-1.7c0-1.4,1.2-2.2,3.5-2.2v-0.1
			c0-0.5-0.1-1.3-1.3-1.3c-0.5,0-1.1,0.2-1.5,0.4l-0.2-0.7c0.5-0.3,1.2-0.5,1.9-0.5c1.8,0,2.2,1.2,2.2,2.4v2.2c0,0.5,0,1,0.1,1.4
			H429.8z M429.6,110.2c-1.1,0-2.4,0.2-2.4,1.3c0,0.7,0.5,1,1,1c0.8,0,1.2-0.5,1.4-1c0-0.1,0.1-0.2,0.1-0.3V110.2z"/>
		<path class="st21" d="M432.3,109c0-0.6,0-1.1,0-1.6h0.9l0.1,1h0c0.3-0.5,1-1.1,1.9-1.1c0.8,0,2,0.5,2,2.5v3.5h-1v-3.3
			c0-0.9-0.4-1.7-1.3-1.7c-0.7,0-1.2,0.5-1.4,1.1c0,0.1-0.1,0.3-0.1,0.5v3.5h-1V109z"/>
		<path class="st21" d="M444,104.7v7c0,0.5,0,1.1,0,1.5h-0.9l-0.1-1h0c-0.3,0.6-1,1.1-2,1.1c-1.4,0-2.5-1.2-2.5-2.9
			c0-1.9,1.2-3.1,2.6-3.1c0.9,0,1.5,0.4,1.8,0.9h0v-3.5H444z M443,109.8c0-0.1,0-0.3,0-0.5c-0.2-0.7-0.7-1.2-1.5-1.2
			c-1.1,0-1.7,1-1.7,2.2c0,1.2,0.6,2.2,1.7,2.2c0.7,0,1.3-0.5,1.5-1.3c0-0.1,0.1-0.3,0.1-0.5V109.8z"/>
	</g>
</g>
<rect x="380.4" y="159.3" class="st13" width="84.3" height="13.5"/>
<g>
	<g class="st20">
		<path class="st21" d="M388,169c-1.1-0.3-2.2-0.6-3.1-0.9c-0.2-0.1-0.3-0.1-0.5-0.1c-1.9-0.1-3.6-1.5-3.6-4.1
			c0-2.6,1.6-4.3,3.8-4.3c2.2,0,3.6,1.7,3.6,4.1c0,2.1-1,3.4-2.3,3.9v0c0.8,0.2,1.7,0.4,2.4,0.5L388,169z M387.1,163.7
			c0-1.6-0.8-3.3-2.6-3.3c-1.8,0-2.6,1.6-2.6,3.4c0,1.7,0.9,3.3,2.6,3.3C386.2,167.1,387.1,165.6,387.1,163.7z"/>
		<path class="st21" d="M394.4,166.2c0,0.6,0,1.1,0,1.6h-0.9l-0.1-0.9h0c-0.3,0.5-0.9,1.1-1.9,1.1c-0.9,0-2-0.5-2-2.5V162h1v3.2
			c0,1.1,0.3,1.9,1.3,1.9c0.7,0,1.2-0.5,1.4-1c0.1-0.2,0.1-0.3,0.1-0.5V162h1V166.2z"/>
		<path class="st21" d="M396.8,165.1c0,1.4,0.9,2,2,2c0.8,0,1.2-0.1,1.6-0.3l0.2,0.7c-0.4,0.2-1,0.4-1.9,0.4c-1.8,0-2.9-1.2-2.9-2.9
			c0-1.8,1-3.1,2.7-3.1c1.9,0,2.4,1.7,2.4,2.7c0,0.2,0,0.4,0,0.5H396.8z M399.9,164.3c0-0.7-0.3-1.7-1.5-1.7c-1.1,0-1.5,1-1.6,1.7
			H399.9z"/>
		<path class="st21" d="M402.8,165.1c0,1.4,0.9,2,2,2c0.8,0,1.2-0.1,1.6-0.3l0.2,0.7c-0.4,0.2-1,0.4-1.9,0.4c-1.8,0-2.9-1.2-2.9-2.9
			c0-1.8,1-3.1,2.7-3.1c1.9,0,2.4,1.7,2.4,2.7c0,0.2,0,0.4,0,0.5H402.8z M405.9,164.3c0-0.7-0.3-1.7-1.5-1.7c-1.1,0-1.5,1-1.6,1.7
			H405.9z"/>
		<path class="st21" d="M408.2,163.6c0-0.6,0-1.1,0-1.6h0.9l0.1,1h0c0.3-0.5,1-1.1,1.9-1.1c0.8,0,2,0.5,2,2.5v3.5h-1v-3.3
			c0-0.9-0.4-1.7-1.3-1.7c-0.7,0-1.2,0.5-1.4,1.1c0,0.1-0.1,0.3-0.1,0.5v3.5h-1V163.6z"/>
		<path class="st21" d="M414.7,166.7c0.3,0.2,0.9,0.4,1.4,0.4c0.8,0,1.1-0.4,1.1-0.9c0-0.5-0.3-0.8-1.1-1.1c-1-0.4-1.5-0.9-1.5-1.6
			c0-0.9,0.8-1.7,2-1.7c0.6,0,1.1,0.2,1.4,0.4l-0.3,0.8c-0.2-0.1-0.6-0.3-1.2-0.3c-0.6,0-1,0.4-1,0.8c0,0.5,0.3,0.7,1.1,1
			c1,0.4,1.5,0.9,1.5,1.7c0,1-0.8,1.7-2.2,1.7c-0.6,0-1.2-0.2-1.6-0.4L414.7,166.7z"/>
		<path class="st21" d="M423.5,167.8l-2-8.1h1.1l1,4.1c0.2,1,0.4,2,0.6,2.8h0c0.1-0.8,0.4-1.8,0.7-2.8l1.1-4.1h1.1l1,4.1
			c0.2,1,0.4,1.9,0.6,2.8h0c0.2-0.9,0.4-1.8,0.6-2.8l1.1-4.1h1.1l-2.3,8.1h-1.1l-1-4.2c-0.3-1-0.4-1.8-0.5-2.6h0
			c-0.1,0.8-0.3,1.6-0.6,2.6l-1.1,4.2H423.5z"/>
		<path class="st21" d="M432.9,165.1c0,1.4,0.9,2,2,2c0.8,0,1.2-0.1,1.6-0.3l0.2,0.7c-0.4,0.2-1,0.4-1.9,0.4c-1.8,0-2.9-1.2-2.9-2.9
			c0-1.8,1-3.1,2.7-3.1c1.9,0,2.4,1.7,2.4,2.7c0,0.2,0,0.4,0,0.5H432.9z M436,164.3c0-0.7-0.3-1.7-1.5-1.7c-1.1,0-1.5,1-1.6,1.7H436
			z"/>
		<path class="st21" d="M438.2,166.7c0.3,0.2,0.9,0.4,1.4,0.4c0.8,0,1.1-0.4,1.1-0.9c0-0.5-0.3-0.8-1.1-1.1c-1-0.4-1.5-0.9-1.5-1.6
			c0-0.9,0.8-1.7,2-1.7c0.6,0,1.1,0.2,1.4,0.4l-0.3,0.8c-0.2-0.1-0.6-0.3-1.2-0.3c-0.6,0-1,0.4-1,0.8c0,0.5,0.3,0.7,1.1,1
			c1,0.4,1.5,0.9,1.5,1.7c0,1-0.8,1.7-2.2,1.7c-0.6,0-1.2-0.2-1.6-0.4L438.2,166.7z"/>
		<path class="st21" d="M444.3,160.3v1.7h1.5v0.8h-1.5v3.1c0,0.7,0.2,1.1,0.8,1.1c0.3,0,0.5,0,0.6-0.1l0,0.8
			c-0.2,0.1-0.5,0.1-0.9,0.1c-0.5,0-0.9-0.2-1.1-0.4c-0.3-0.3-0.4-0.8-0.4-1.5v-3.2h-0.9V162h0.9v-1.4L444.3,160.3z"/>
	</g>
</g>
<rect x="380.4" y="187.6" class="st13" width="80.4" height="12.6"/>
<g>
	<g class="st20">
		<path class="st21" d="M381.3,188.1c0.5-0.1,1.2-0.2,1.9-0.2c1,0,1.7,0.2,2.2,0.6c0.4,0.3,0.7,0.8,0.7,1.4c0,0.8-0.5,1.5-1.4,1.8v0
			c0.8,0.2,1.7,0.8,1.7,2c0,0.7-0.3,1.2-0.7,1.6c-0.6,0.5-1.5,0.8-2.8,0.8c-0.7,0-1.3-0.1-1.6-0.1V188.1z M382.4,191.4h1
			c1.1,0,1.7-0.6,1.7-1.4c0-0.9-0.7-1.3-1.8-1.3c-0.5,0-0.8,0-0.9,0.1V191.4z M382.4,195.3c0.2,0,0.5,0.1,0.9,0.1
			c1.1,0,2.1-0.4,2.1-1.6c0-1.1-1-1.6-2.1-1.6h-0.9V195.3z"/>
		<path class="st21" d="M387.8,192.1c0-0.7,0-1.3,0-1.8h0.9l0,1.1h0c0.3-0.8,0.9-1.3,1.6-1.3c0.1,0,0.2,0,0.3,0v1
			c-0.1,0-0.2,0-0.4,0c-0.7,0-1.3,0.6-1.4,1.3c0,0.1,0,0.3,0,0.5v3.1h-1V192.1z"/>
		<path class="st21" d="M397,193.1c0,2.1-1.5,3.1-2.9,3.1c-1.6,0-2.8-1.1-2.8-3c0-1.9,1.3-3.1,2.9-3.1
			C395.8,190.2,397,191.4,397,193.1z M392.4,193.2c0,1.3,0.7,2.2,1.8,2.2c1,0,1.8-0.9,1.8-2.3c0-1-0.5-2.2-1.7-2.2
			C392.9,191,392.4,192.1,392.4,193.2z"/>
		<path class="st21" d="M403.6,193.1c0,2.1-1.5,3.1-2.9,3.1c-1.6,0-2.8-1.1-2.8-3c0-1.9,1.3-3.1,2.9-3.1
			C402.4,190.2,403.6,191.4,403.6,193.1z M399,193.2c0,1.3,0.7,2.2,1.8,2.2c1,0,1.8-0.9,1.8-2.3c0-1-0.5-2.2-1.7-2.2
			C399.5,191,399,192.1,399,193.2z"/>
		<path class="st21" d="M405.9,193L405.9,193c0.2-0.2,0.4-0.5,0.5-0.7l1.7-2h1.3l-2.2,2.4l2.6,3.4h-1.3l-2-2.8l-0.5,0.6v2.2h-1v-8.5
			h1V193z"/>
		<path class="st21" d="M410.5,187.6h1v8.5h-1V187.6z"/>
		<path class="st21" d="M413.7,190.3l1.3,3.4c0.1,0.4,0.3,0.8,0.4,1.2h0c0.1-0.3,0.2-0.8,0.4-1.2l1.1-3.4h1.1l-1.6,4.1
			c-0.8,2-1.3,3-2,3.6c-0.5,0.5-1,0.6-1.3,0.7l-0.3-0.9c0.3-0.1,0.6-0.2,0.9-0.5c0.3-0.2,0.6-0.6,0.9-1.2c0.1-0.1,0.1-0.2,0.1-0.3
			c0-0.1,0-0.1-0.1-0.3l-2.1-5.3H413.7z"/>
		<path class="st21" d="M419,191.9c0-0.6,0-1.1,0-1.6h0.9l0.1,1h0c0.3-0.5,1-1.1,1.9-1.1c0.8,0,2,0.5,2,2.5v3.5h-1v-3.3
			c0-0.9-0.4-1.7-1.3-1.7c-0.7,0-1.2,0.5-1.4,1.1c0,0.1-0.1,0.3-0.1,0.5v3.5h-1V191.9z"/>
		<path class="st21" d="M428.1,194.8c0.5,0.3,1.1,0.5,1.9,0.5c1.1,0,1.7-0.6,1.7-1.4c0-0.7-0.4-1.2-1.5-1.6
			c-1.3-0.5-2.1-1.2-2.1-2.3c0-1.3,1-2.2,2.6-2.2c0.8,0,1.4,0.2,1.8,0.4l-0.3,0.9c-0.3-0.2-0.8-0.4-1.5-0.4c-1.1,0-1.5,0.7-1.5,1.2
			c0,0.8,0.5,1.1,1.6,1.6c1.4,0.5,2.1,1.2,2.1,2.4c0,1.2-0.9,2.3-2.8,2.3c-0.8,0-1.6-0.2-2.1-0.5L428.1,194.8z"/>
		<path class="st21" d="M439.4,193.1c0,2.1-1.5,3.1-2.9,3.1c-1.6,0-2.8-1.1-2.8-3c0-1.9,1.3-3.1,2.9-3.1
			C438.3,190.2,439.4,191.4,439.4,193.1z M434.8,193.2c0,1.3,0.7,2.2,1.8,2.2c1,0,1.8-0.9,1.8-2.3c0-1-0.5-2.2-1.7-2.2
			C435.3,191,434.8,192.1,434.8,193.2z"/>
		<path class="st21" d="M445.6,194.5c0,0.6,0,1.1,0,1.6h-0.9l-0.1-0.9h0c-0.3,0.5-0.9,1.1-1.9,1.1c-0.9,0-2-0.5-2-2.5v-3.4h1v3.2
			c0,1.1,0.3,1.9,1.3,1.9c0.7,0,1.2-0.5,1.4-1c0.1-0.2,0.1-0.3,0.1-0.5v-3.6h1V194.5z"/>
		<path class="st21" d="M448.6,188.6v1.7h1.5v0.8h-1.5v3.1c0,0.7,0.2,1.1,0.8,1.1c0.3,0,0.5,0,0.6-0.1l0,0.8
			c-0.2,0.1-0.5,0.1-0.9,0.1c-0.5,0-0.9-0.2-1.1-0.4c-0.3-0.3-0.4-0.8-0.4-1.5v-3.2h-0.9v-0.8h0.9v-1.4L448.6,188.6z"/>
		<path class="st21" d="M451.3,187.6h1v3.6h0c0.2-0.3,0.4-0.6,0.8-0.7c0.3-0.2,0.7-0.3,1.1-0.3c0.8,0,2,0.5,2,2.5v3.5h-1v-3.3
			c0-0.9-0.4-1.7-1.3-1.7c-0.7,0-1.2,0.5-1.4,1.1c-0.1,0.1-0.1,0.3-0.1,0.5v3.5h-1V187.6z"/>
	</g>
</g>
<rect x="380.4" y="436.4" class="st13" width="82.2" height="13.6"/>
<g>
	<g class="st20">
		<path class="st21" d="M381.3,436.9c0.5-0.1,1.2-0.2,1.9-0.2c1,0,1.7,0.2,2.2,0.6c0.4,0.3,0.7,0.8,0.7,1.4c0,0.8-0.5,1.5-1.4,1.8v0
			c0.8,0.2,1.7,0.8,1.7,2c0,0.7-0.3,1.2-0.7,1.6c-0.6,0.5-1.5,0.8-2.8,0.8c-0.7,0-1.3-0.1-1.6-0.1V436.9z M382.4,440.3h1
			c1.1,0,1.7-0.6,1.7-1.4c0-0.9-0.7-1.3-1.8-1.3c-0.5,0-0.8,0-0.9,0.1V440.3z M382.4,444.1c0.2,0,0.5,0.1,0.9,0.1
			c1.1,0,2.1-0.4,2.1-1.6c0-1.1-1-1.6-2.1-1.6h-0.9V444.1z"/>
		<path class="st21" d="M387.8,440.9c0-0.7,0-1.3,0-1.8h0.9l0,1.1h0c0.3-0.8,0.9-1.3,1.6-1.3c0.1,0,0.2,0,0.3,0v1
			c-0.1,0-0.2,0-0.4,0c-0.7,0-1.3,0.6-1.4,1.3c0,0.1,0,0.3,0,0.5v3.1h-1V440.9z"/>
		<path class="st21" d="M397,442c0,2.1-1.5,3.1-2.9,3.1c-1.6,0-2.8-1.1-2.8-3c0-1.9,1.3-3.1,2.9-3.1C395.8,439,397,440.2,397,442z
			 M392.4,442c0,1.3,0.7,2.2,1.8,2.2c1,0,1.8-0.9,1.8-2.3c0-1-0.5-2.2-1.7-2.2C392.9,439.8,392.4,440.9,392.4,442z"/>
		<path class="st21" d="M403.6,442c0,2.1-1.5,3.1-2.9,3.1c-1.6,0-2.8-1.1-2.8-3c0-1.9,1.3-3.1,2.9-3.1
			C402.4,439,403.6,440.2,403.6,442z M399,442c0,1.3,0.7,2.2,1.8,2.2c1,0,1.8-0.9,1.8-2.3c0-1-0.5-2.2-1.7-2.2
			C399.5,439.8,399,440.9,399,442z"/>
		<path class="st21" d="M405.9,441.8L405.9,441.8c0.2-0.2,0.4-0.5,0.5-0.7l1.7-2h1.3l-2.2,2.4l2.6,3.4h-1.3l-2-2.8l-0.5,0.6v2.2h-1
			v-8.5h1V441.8z"/>
		<path class="st21" d="M410.5,436.4h1v8.5h-1V436.4z"/>
		<path class="st21" d="M413.7,439.1l1.3,3.4c0.1,0.4,0.3,0.8,0.4,1.2h0c0.1-0.3,0.2-0.8,0.4-1.2l1.1-3.4h1.1l-1.6,4.1
			c-0.8,2-1.3,3-2,3.6c-0.5,0.5-1,0.6-1.3,0.7l-0.3-0.9c0.3-0.1,0.6-0.2,0.9-0.5c0.3-0.2,0.6-0.6,0.9-1.2c0.1-0.1,0.1-0.2,0.1-0.3
			c0-0.1,0-0.1-0.1-0.3l-2.1-5.3H413.7z"/>
		<path class="st21" d="M419,440.7c0-0.6,0-1.1,0-1.6h0.9l0.1,1h0c0.3-0.5,1-1.1,1.9-1.1c0.8,0,2,0.5,2,2.5v3.5h-1v-3.3
			c0-0.9-0.4-1.7-1.3-1.7c-0.7,0-1.2,0.5-1.4,1.1c0,0.1-0.1,0.3-0.1,0.5v3.5h-1V440.7z"/>
		<path class="st21" d="M428.2,444.9v-8.1h1.1l2.6,4.1c0.6,0.9,1.1,1.8,1.4,2.6l0,0c-0.1-1.1-0.1-2.1-0.1-3.3v-3.4h1v8.1h-1.1
			l-2.6-4.1c-0.6-0.9-1.1-1.8-1.5-2.7l0,0c0.1,1,0.1,2,0.1,3.3v3.5H428.2z"/>
		<path class="st21" d="M441.4,442c0,2.1-1.5,3.1-2.9,3.1c-1.6,0-2.8-1.1-2.8-3c0-1.9,1.3-3.1,2.9-3.1
			C440.2,439,441.4,440.2,441.4,442z M436.8,442c0,1.3,0.7,2.2,1.8,2.2c1,0,1.8-0.9,1.8-2.3c0-1-0.5-2.2-1.7-2.2
			C437.3,439.8,436.8,440.9,436.8,442z"/>
		<path class="st21" d="M442.7,440.9c0-0.7,0-1.3,0-1.8h0.9l0,1.1h0c0.3-0.8,0.9-1.3,1.6-1.3c0.1,0,0.2,0,0.3,0v1
			c-0.1,0-0.2,0-0.4,0c-0.7,0-1.3,0.6-1.4,1.3c0,0.1,0,0.3,0,0.5v3.1h-1V440.9z"/>
		<path class="st21" d="M447.9,437.4v1.7h1.5v0.8h-1.5v3.1c0,0.7,0.2,1.1,0.8,1.1c0.3,0,0.5,0,0.6-0.1l0,0.8
			c-0.2,0.1-0.5,0.1-0.9,0.1c-0.5,0-0.9-0.2-1.1-0.4c-0.3-0.3-0.4-0.8-0.4-1.5v-3.2H446v-0.8h0.9v-1.4L447.9,437.4z"/>
		<path class="st21" d="M450.6,436.4h1v3.6h0c0.2-0.3,0.4-0.6,0.8-0.7c0.3-0.2,0.7-0.3,1.1-0.3c0.8,0,2,0.5,2,2.5v3.5h-1v-3.3
			c0-0.9-0.4-1.7-1.3-1.7c-0.7,0-1.2,0.5-1.4,1.1c-0.1,0.1-0.1,0.3-0.1,0.5v3.5h-1V436.4z"/>
	</g>
</g>
</svg>
